<?xml version="1.0" encoding="UTF-8"?>
<svg width="480px" height="320px" viewBox="0 0 480 320" version="1.1" xmlns="http://www.w3.org/2000/svg" xmlns:xlink="http://www.w3.org/1999/xlink">
    <!-- Generator: Sketch 49.3 (51167) - http://www.bohemiancoding.com/sketch -->
    <title>logo</title>
    <desc>Created with Sketch.</desc>
    <defs></defs>
    <g id="Page-1" stroke="none" stroke-width="1" fill="none" fill-rule="evenodd">
        <g id="Board">
            <g id="hexagons" transform="translate(131.000000, 50.000000)">
                <polygon id="Polygon" fill="#F1C50E" points="109 0 143.641016 20 143.641016 60 109 80 74.3589838 60 74.3589838 20"></polygon>
                <polygon id="Polygon" fill="#3498DC" points="143.5 60 178.141016 80 178.141016 120 143.5 140 108.858984 120 108.858984 80"></polygon>
                <polygon id="Polygon" fill="#E74C3C" points="178 120 212.641016 140 212.641016 180 178 200 143.358984 180 143.358984 140"></polygon>
                <polygon id="Polygon" fill="#9B59B6" points="74.5 60 109.141016 80 109.141016 120 74.5 140 39.8589838 120 39.8589838 80"></polygon>
                <polygon id="Polygon" fill="#2CCC71" points="40 120 74.6410162 140 74.6410162 180 40 200 5.35898385 180 5.35898385 140"></polygon>
            </g>
            <path d="M134.616,290 L133.92,286.568 L129.96,286.568 L129.288,290 L126.216,290 C126.920004,287.071985 127.631996,284.404012 128.352,281.996 C129.072004,279.587988 129.767997,277.304011 130.44,275.144 L133.656,275.144 C134.360004,277.320011 135.059997,279.627988 135.756,282.068 C136.452003,284.508012 137.127997,287.151986 137.784,290 L134.616,290 Z M131.976,278.024 C131.815999,278.584003 131.668001,279.115997 131.532,279.62 C131.395999,280.124003 131.268001,280.619998 131.148,281.108 C131.027999,281.596002 130.916001,282.087998 130.812,282.584 C130.707999,283.080002 130.608,283.591997 130.512,284.12 L133.416,284.12 C133.32,283.591997 133.224,283.080002 133.128,282.584 C133.032,282.087998 132.924001,281.596002 132.804,281.108 C132.683999,280.619998 132.556001,280.124003 132.42,279.62 C132.283999,279.115997 132.136001,278.584003 131.976,278.024 Z M146.256,284.456 C146.256,283.447995 146.056002,282.620003 145.656,281.972 C145.255998,281.323997 144.648004,281 143.832,281 C143.607999,281 143.368001,281.012 143.112,281.036 C142.855999,281.06 142.640001,281.08 142.464,281.096 L142.464,287.288 C142.656001,287.416001 142.911998,287.52 143.232,287.6 C143.552002,287.68 143.871998,287.72 144.192,287.72 C144.896004,287.72 145.415998,287.436003 145.752,286.868 C146.088002,286.299997 146.256,285.496005 146.256,284.456 Z M149.256,284.36 C149.256,285.224004 149.160001,286.019996 148.968,286.748 C148.775999,287.476004 148.496002,288.099997 148.128,288.62 C147.759998,289.140003 147.296003,289.543999 146.736,289.832 C146.175997,290.120001 145.528004,290.264 144.792,290.264 C144.039996,290.264 143.264004,290.080002 142.464,289.712 L142.464,293.96 L139.512,293.96 L139.512,279.08 C140.056003,278.903999 140.723996,278.760001 141.516,278.648 C142.308004,278.535999 143.087996,278.48 143.856,278.48 C145.600009,278.48 146.935995,279.007995 147.864,280.064 C148.792005,281.120005 149.256,282.551991 149.256,284.36 Z M158.256,284.456 C158.256,283.447995 158.056002,282.620003 157.656,281.972 C157.255998,281.323997 156.648004,281 155.832,281 C155.607999,281 155.368001,281.012 155.112,281.036 C154.855999,281.06 154.640001,281.08 154.464,281.096 L154.464,287.288 C154.656001,287.416001 154.911998,287.52 155.232,287.6 C155.552002,287.68 155.871998,287.72 156.192,287.72 C156.896004,287.72 157.415998,287.436003 157.752,286.868 C158.088002,286.299997 158.256,285.496005 158.256,284.456 Z M161.256,284.36 C161.256,285.224004 161.160001,286.019996 160.968,286.748 C160.775999,287.476004 160.496002,288.099997 160.128,288.62 C159.759998,289.140003 159.296003,289.543999 158.736,289.832 C158.175997,290.120001 157.528004,290.264 156.792,290.264 C156.039996,290.264 155.264004,290.080002 154.464,289.712 L154.464,293.96 L151.512,293.96 L151.512,279.08 C152.056003,278.903999 152.723996,278.760001 153.516,278.648 C154.308004,278.535999 155.087996,278.48 155.856,278.48 C157.600009,278.48 158.935995,279.007995 159.864,280.064 C160.792005,281.120005 161.256,282.551991 161.256,284.36 Z M178.248,287.6 C178.328,287.616 178.416,287.624 178.512,287.624 L178.776,287.624 C179.448003,287.624 180.011998,287.496001 180.468,287.24 C180.924002,286.983999 181.291999,286.632002 181.572,286.184 C181.852001,285.735998 182.051999,285.204003 182.172,284.588 C182.292001,283.971997 182.352,283.296004 182.352,282.56 C182.352,281.919997 182.304,281.296003 182.208,280.688 C182.112,280.079997 181.944001,279.544002 181.704,279.08 C181.463999,278.615998 181.136002,278.244001 180.72,277.964 C180.303998,277.683999 179.768003,277.544 179.112,277.544 C178.983999,277.544 178.840001,277.548 178.68,277.556 C178.519999,277.564 178.376001,277.584 178.248,277.616 L178.248,287.6 Z M185.352,282.56 C185.352,283.936007 185.180002,285.107995 184.836,286.076 C184.491998,287.044005 184.016003,287.831997 183.408,288.44 C182.799997,289.048003 182.076004,289.491999 181.236,289.772 C180.395996,290.052001 179.472005,290.192 178.464,290.192 C177.935997,290.192 177.420003,290.164 176.916,290.108 C176.411997,290.052 175.872003,289.960001 175.296,289.832 L175.296,275.336 C175.968003,275.191999 176.599997,275.096 177.192,275.048 C177.784003,275 178.335997,274.976 178.848,274.976 C179.824005,274.976 180.715996,275.119999 181.524,275.408 C182.332004,275.696001 183.015997,276.147997 183.576,276.764 C184.136003,277.380003 184.571998,278.163995 184.884,279.116 C185.196002,280.068005 185.352,281.215993 185.352,282.56 Z M186.744,284.456 C186.744,283.463995 186.895998,282.592004 187.2,281.84 C187.504002,281.087996 187.903998,280.460003 188.4,279.956 C188.896002,279.451997 189.463997,279.072001 190.104,278.816 C190.744003,278.559999 191.399997,278.432 192.072,278.432 C193.736008,278.432 194.999996,278.923995 195.864,279.908 C196.728004,280.892005 197.16,282.327991 197.16,284.216 C197.16,284.408001 197.156,284.607999 197.148,284.816 C197.14,285.024001 197.128,285.191999 197.112,285.32 L189.792,285.32 C189.792,286.056004 190.095997,286.635998 190.704,287.06 C191.312003,287.484002 192.095995,287.696 193.056,287.696 C193.648003,287.696 194.211997,287.632001 194.748,287.504 C195.284003,287.375999 195.735998,287.248001 196.104,287.12 L196.512,289.64 C195.999997,289.816001 195.456003,289.963999 194.88,290.084 C194.303997,290.204001 193.656004,290.264 192.936,290.264 C191.975995,290.264 191.116004,290.140001 190.356,289.892 C189.595996,289.643999 188.948003,289.276002 188.412,288.788 C187.875997,288.299998 187.464001,287.696004 187.176,286.976 C186.887999,286.255996 186.744,285.416005 186.744,284.456 Z M194.304,283.28 C194.304,282.975998 194.264,282.684001 194.184,282.404 C194.104,282.123999 193.976001,281.872001 193.8,281.648 C193.623999,281.423999 193.400001,281.244001 193.128,281.108 C192.855999,280.971999 192.520002,280.904 192.12,280.904 C191.735998,280.904 191.404001,280.967999 191.124,281.096 C190.843999,281.224001 190.612001,281.399999 190.428,281.624 C190.243999,281.848001 190.100001,282.103999 189.996,282.392 C189.891999,282.680001 189.824,282.975998 189.792,283.28 L194.304,283.28 Z M206.256,284.456 C206.256,283.447995 206.056002,282.620003 205.656,281.972 C205.255998,281.323997 204.648004,281 203.832,281 C203.607999,281 203.368001,281.012 203.112,281.036 C202.855999,281.06 202.640001,281.08 202.464,281.096 L202.464,287.288 C202.656001,287.416001 202.911998,287.52 203.232,287.6 C203.552002,287.68 203.871998,287.72 204.192,287.72 C204.896004,287.72 205.415998,287.436003 205.752,286.868 C206.088002,286.299997 206.256,285.496005 206.256,284.456 Z M209.256,284.36 C209.256,285.224004 209.160001,286.019996 208.968,286.748 C208.775999,287.476004 208.496002,288.099997 208.128,288.62 C207.759998,289.140003 207.296003,289.543999 206.736,289.832 C206.175997,290.120001 205.528004,290.264 204.792,290.264 C204.039996,290.264 203.264004,290.080002 202.464,289.712 L202.464,293.96 L199.512,293.96 L199.512,279.08 C200.056003,278.903999 200.723996,278.760001 201.516,278.648 C202.308004,278.535999 203.087996,278.48 203.856,278.48 C205.600009,278.48 206.935995,279.007995 207.864,280.064 C208.792005,281.120005 209.256,282.551991 209.256,284.36 Z M210.744,284.456 C210.744,283.463995 210.895998,282.592004 211.2,281.84 C211.504002,281.087996 211.903998,280.460003 212.4,279.956 C212.896002,279.451997 213.463997,279.072001 214.104,278.816 C214.744003,278.559999 215.399997,278.432 216.072,278.432 C217.736008,278.432 218.999996,278.923995 219.864,279.908 C220.728004,280.892005 221.16,282.327991 221.16,284.216 C221.16,284.408001 221.156,284.607999 221.148,284.816 C221.14,285.024001 221.128,285.191999 221.112,285.32 L213.792,285.32 C213.792,286.056004 214.095997,286.635998 214.704,287.06 C215.312003,287.484002 216.095995,287.696 217.056,287.696 C217.648003,287.696 218.211997,287.632001 218.748,287.504 C219.284003,287.375999 219.735998,287.248001 220.104,287.12 L220.512,289.64 C219.999997,289.816001 219.456003,289.963999 218.88,290.084 C218.303997,290.204001 217.656004,290.264 216.936,290.264 C215.975995,290.264 215.116004,290.140001 214.356,289.892 C213.595996,289.643999 212.948003,289.276002 212.412,288.788 C211.875997,288.299998 211.464001,287.696004 211.176,286.976 C210.887999,286.255996 210.744,285.416005 210.744,284.456 Z M218.304,283.28 C218.304,282.975998 218.264,282.684001 218.184,282.404 C218.104,282.123999 217.976001,281.872001 217.8,281.648 C217.623999,281.423999 217.400001,281.244001 217.128,281.108 C216.855999,280.971999 216.520002,280.904 216.12,280.904 C215.735998,280.904 215.404001,280.967999 215.124,281.096 C214.843999,281.224001 214.612001,281.399999 214.428,281.624 C214.243999,281.848001 214.100001,282.103999 213.996,282.392 C213.891999,282.680001 213.824,282.975998 213.792,283.28 L218.304,283.28 Z M223.512,279.08 C224.040003,278.935999 224.691996,278.800001 225.468,278.672 C226.244004,278.543999 227.087995,278.48 228,278.48 C228.896004,278.48 229.639997,278.603999 230.232,278.852 C230.824003,279.100001 231.291998,279.451998 231.636,279.908 C231.980002,280.364002 232.223999,280.907997 232.368,281.54 C232.512001,282.172003 232.584,282.871996 232.584,283.64 L232.584,290 L229.632,290 L229.632,284.024 C229.632,282.967995 229.512001,282.208002 229.272,281.744 C229.031999,281.279998 228.544004,281.048 227.808,281.048 C227.583999,281.048 227.364001,281.056 227.148,281.072 C226.931999,281.088 226.704001,281.112 226.464,281.144 L226.464,290 L223.512,290 L223.512,279.08 Z M237.672,284.288 C237.672,285.296005 237.859998,286.119997 238.236,286.76 C238.612002,287.400003 239.215996,287.72 240.048,287.72 C240.288001,287.72 240.511999,287.712 240.72,287.696 C240.928001,287.68 241.143999,287.656 241.368,287.624 L241.368,281.48 C241.143999,281.351999 240.888001,281.244 240.6,281.156 C240.311999,281.068 240.008002,281.024 239.688,281.024 C238.983996,281.024 238.472002,281.303997 238.152,281.864 C237.831998,282.424003 237.672,283.231995 237.672,284.288 Z M244.32,289.664 C243.775997,289.840001 243.112004,289.983999 242.328,290.096 C241.543996,290.208001 240.776004,290.264 240.024,290.264 C238.263991,290.264 236.932005,289.744005 236.028,288.704 C235.123995,287.663995 234.672,286.240009 234.672,284.432 C234.672,282.591991 235.051996,281.140005 235.812,280.076 C236.572004,279.011995 237.695993,278.48 239.184,278.48 C239.584002,278.48 239.975998,278.524 240.36,278.612 C240.744002,278.7 241.079999,278.823999 241.368,278.984 L241.368,273.848 L244.32,273.344 L244.32,289.664 Z M251.472,287.768 C252.192004,287.768 252.743998,287.716001 253.128,287.612 C253.512002,287.507999 253.704,287.296002 253.704,286.976 C253.704,286.767999 253.644001,286.592001 253.524,286.448 C253.403999,286.303999 253.236001,286.180001 253.02,286.076 C252.803999,285.971999 252.556001,285.872 252.276,285.776 C251.995999,285.68 251.704002,285.584 251.4,285.488 C250.967998,285.359999 250.528002,285.212001 250.08,285.044 C249.631998,284.875999 249.224002,284.664001 248.856,284.408 C248.487998,284.151999 248.184001,283.828002 247.944,283.436 C247.703999,283.043998 247.584,282.552003 247.584,281.96 C247.584,281.479998 247.675999,281.028002 247.86,280.604 C248.044001,280.179998 248.331998,279.804002 248.724,279.476 C249.116002,279.147998 249.615997,278.892001 250.224,278.708 C250.832003,278.523999 251.559996,278.432 252.408,278.432 C253.144004,278.432 253.827997,278.487999 254.46,278.6 C255.092003,278.712001 255.639998,278.871999 256.104,279.08 L255.648,281.576 C255.375999,281.496 254.952003,281.364001 254.376,281.18 C253.799997,280.995999 253.152004,280.904 252.432,280.904 C251.679996,280.904 251.172001,280.995999 250.908,281.18 C250.643999,281.364001 250.512,281.559999 250.512,281.768 C250.512,281.944001 250.571999,282.099999 250.692,282.236 C250.812001,282.372001 250.971999,282.495999 251.172,282.608 C251.372001,282.720001 251.603999,282.827999 251.868,282.932 C252.132001,283.036001 252.415998,283.136 252.72,283.232 C253.152002,283.376001 253.599998,283.535999 254.064,283.712 C254.528002,283.888001 254.947998,284.107999 255.324,284.372 C255.700002,284.636001 256.007999,284.971998 256.248,285.38 C256.488001,285.788002 256.608,286.287997 256.608,286.88 C256.608,287.344002 256.520001,287.783998 256.344,288.2 C256.167999,288.616002 255.876002,288.975998 255.468,289.28 C255.059998,289.584002 254.528003,289.823999 253.872,290 C253.215997,290.176001 252.408005,290.264 251.448,290.264 C250.471995,290.264 249.640003,290.152001 248.952,289.928 C248.263997,289.703999 247.712002,289.504001 247.296,289.328 L247.752,286.856 C248.312003,287.080001 248.907997,287.287999 249.54,287.48 C250.172003,287.672001 250.815997,287.768 251.472,287.768 Z M273.336,290 L273.336,281.168 L270.864,281.168 L270.864,278.72 L273.336,278.72 L273.336,278.072 C273.336,277.159995 273.467999,276.404003 273.732,275.804 C273.996001,275.203997 274.351998,274.724002 274.8,274.364 C275.248002,274.003998 275.759997,273.748001 276.336,273.596 C276.912003,273.443999 277.503997,273.368 278.112,273.368 C278.736003,273.368 279.375997,273.423999 280.032,273.536 C280.688003,273.648001 281.279997,273.831999 281.808,274.088 L281.304,276.488 C280.935998,276.359999 280.476003,276.228001 279.924,276.092 C279.371997,275.955999 278.848002,275.888 278.352,275.888 C278.079999,275.888 277.820001,275.912 277.572,275.96 C277.323999,276.008 277.108001,276.111999 276.924,276.272 C276.739999,276.432001 276.592001,276.659999 276.48,276.956 C276.367999,277.252001 276.312,277.639998 276.312,278.12 L276.312,278.72 L280.944,278.72 L280.944,281.168 L276.312,281.168 L276.312,290 L273.336,290 Z M293.328,284.336 C293.328,285.232004 293.200001,286.043996 292.944,286.772 C292.687999,287.500004 292.328002,288.127997 291.864,288.656 C291.399998,289.184003 290.844003,289.591999 290.196,289.88 C289.547997,290.168001 288.824004,290.312 288.024,290.312 C287.223996,290.312 286.500003,290.168001 285.852,289.88 C285.203997,289.591999 284.644002,289.184003 284.172,288.656 C283.699998,288.127997 283.336001,287.500004 283.08,286.772 C282.823999,286.043996 282.696,285.232004 282.696,284.336 C282.696,283.455996 282.827999,282.652004 283.092,281.924 C283.356001,281.195996 283.723998,280.572003 284.196,280.052 C284.668002,279.531997 285.231997,279.132001 285.888,278.852 C286.544003,278.571999 287.255996,278.432 288.024,278.432 C288.808004,278.432 289.523997,278.571999 290.172,278.852 C290.820003,279.132001 291.379998,279.531997 291.852,280.052 C292.324002,280.572003 292.687999,281.195996 292.944,281.924 C293.200001,282.652004 293.328,283.455996 293.328,284.336 Z M285.696,284.36 C285.696,285.368005 285.875998,286.183997 286.236,286.808 C286.596002,287.432003 287.175996,287.744 287.976,287.744 C288.744004,287.744 289.323998,287.432003 289.716,286.808 C290.108002,286.183997 290.304,285.368005 290.304,284.36 C290.304,283.351995 290.124002,282.540003 289.764,281.924 C289.403998,281.307997 288.824004,281 288.024,281 C287.255996,281 286.676002,281.307997 286.284,281.924 C285.891998,282.540003 285.696,283.351995 285.696,284.36 Z M304.488,281.72 C304.295999,281.672 304.068001,281.624 303.804,281.576 C303.539999,281.528 303.272001,281.484 303,281.444 C302.727999,281.404 302.464001,281.376 302.208,281.36 C301.951999,281.344 301.736001,281.336 301.56,281.336 C301.143998,281.336 300.736002,281.356 300.336,281.396 C299.935998,281.436 299.528002,281.511999 299.112,281.624 L299.112,290 L296.136,290 L296.136,279.464 C296.920004,279.175999 297.723996,278.944001 298.548,278.768 C299.372004,278.591999 300.335994,278.504 301.44,278.504 C301.600001,278.504 301.827999,278.512 302.124,278.528 C302.420001,278.544 302.735998,278.572 303.072,278.612 C303.408002,278.652 303.747998,278.7 304.092,278.756 C304.436002,278.812 304.743999,278.888 305.016,278.984 L304.488,281.72 Z M324.816,275.48 C324.816,276.056003 324.632002,276.511998 324.264,276.848 C323.895998,277.184002 323.456003,277.352 322.944,277.352 C322.431997,277.352 321.996002,277.184002 321.636,276.848 C321.275998,276.511998 321.096,276.056003 321.096,275.48 C321.096,274.887997 321.275998,274.424002 321.636,274.088 C321.996002,273.751998 322.431997,273.584 322.944,273.584 C323.456003,273.584 323.895998,273.751998 324.264,274.088 C324.632002,274.424002 324.816,274.887997 324.816,275.48 Z M329.208,289.52 C328.599997,289.808001 328.028003,290.003999 327.492,290.108 C326.955997,290.212001 326.464002,290.264 326.016,290.264 C325.247996,290.264 324.604003,290.152001 324.084,289.928 C323.563997,289.703999 323.148002,289.380002 322.836,288.956 C322.523998,288.531998 322.304001,288.016003 322.176,287.408 C322.047999,286.799997 321.984,286.104004 321.984,285.32 L321.984,281.168 L318.864,281.168 L318.864,278.72 L324.936,278.72 L324.936,285.704 C324.936,286.376003 325.059999,286.875998 325.308,287.204 C325.556001,287.532002 325.967997,287.696 326.544,287.696 C326.816001,287.696 327.143998,287.66 327.528,287.588 C327.912002,287.516 328.343998,287.368001 328.824,287.144 L329.208,289.52 Z M333.648,282.56 C333.648,283.280004 333.676,283.955997 333.732,284.588 C333.788,285.220003 333.899999,285.767998 334.068,286.232 C334.236001,286.696002 334.471998,287.063999 334.776,287.336 C335.080002,287.608001 335.487997,287.744 336,287.744 C336.496002,287.744 336.899998,287.608001 337.212,287.336 C337.524002,287.063999 337.763999,286.692002 337.932,286.22 C338.100001,285.747998 338.212,285.200003 338.268,284.576 C338.324,283.951997 338.352,283.280004 338.352,282.56 C338.352,281.839996 338.324,281.164003 338.268,280.532 C338.212,279.899997 338.100001,279.352002 337.932,278.888 C337.763999,278.423998 337.528002,278.056001 337.224,277.784 C336.919998,277.511999 336.512003,277.376 336,277.376 C335.487997,277.376 335.080002,277.511999 334.776,277.784 C334.471998,278.056001 334.236001,278.427998 334.068,278.9 C333.899999,279.372002 333.788,279.919997 333.732,280.544 C333.676,281.168003 333.648,281.839996 333.648,282.56 Z M330.648,282.56 C330.648,279.999987 331.119995,278.068007 332.064,276.764 C333.008005,275.459993 334.319992,274.808 336,274.808 C337.744009,274.808 339.071995,275.459993 339.984,276.764 C340.896005,278.068007 341.352,279.999987 341.352,282.56 C341.352,285.120013 340.888005,287.051993 339.96,288.356 C339.031995,289.660007 337.720008,290.312 336.024,290.312 C334.279991,290.312 332.948005,289.660007 332.028,288.356 C331.107995,287.051993 330.648,285.120013 330.648,282.56 Z M347.568,287.84 C348.064002,287.84 348.475998,287.788001 348.804,287.684 C349.132002,287.579999 349.391999,287.436001 349.584,287.252 C349.776001,287.067999 349.908,286.860001 349.98,286.628 C350.052,286.395999 350.088,286.160001 350.088,285.92 C350.088,285.615998 350.000001,285.344001 349.824,285.104 C349.647999,284.863999 349.424001,284.652001 349.152,284.468 C348.879999,284.283999 348.576002,284.116001 348.24,283.964 C347.903998,283.811999 347.568002,283.672001 347.232,283.544 C346.783998,283.383999 346.320002,283.200001 345.84,282.992 C345.359998,282.783999 344.924002,282.520002 344.532,282.2 C344.139998,281.879998 343.816001,281.484002 343.56,281.012 C343.303999,280.539998 343.176,279.952004 343.176,279.248 C343.176,277.855993 343.627995,276.768004 344.532,275.984 C345.436005,275.199996 346.679992,274.808 348.264,274.808 C349.176005,274.808 349.971997,274.911999 350.652,275.12 C351.332003,275.328001 351.903998,275.559999 352.368,275.816 L351.504,278.096 C351.103998,277.871999 350.660002,277.680001 350.172,277.52 C349.683998,277.359999 349.120003,277.28 348.48,277.28 C346.911992,277.28 346.128,277.847994 346.128,278.984 C346.128,279.272001 346.207999,279.523999 346.368,279.74 C346.528001,279.956001 346.731999,280.147999 346.98,280.316 C347.228001,280.484001 347.507998,280.631999 347.82,280.76 C348.132002,280.888001 348.439998,281.007999 348.744,281.12 C349.208002,281.296001 349.691997,281.491999 350.196,281.708 C350.700003,281.924001 351.163998,282.211998 351.588,282.572 C352.012002,282.932002 352.359999,283.379997 352.632,283.916 C352.904001,284.452003 353.04,285.127996 353.04,285.944 C353.04,287.336007 352.588005,288.411996 351.684,289.172 C350.779995,289.932004 349.408009,290.312 347.568,290.312 C346.335994,290.312 345.352004,290.180001 344.616,289.916 C343.879996,289.651999 343.328002,289.408001 342.96,289.184 L343.824,286.784 C344.256002,287.040001 344.771997,287.279999 345.372,287.504 C345.972003,287.728001 346.703996,287.84 347.568,287.84 Z" id="App-Depends-for-iOS" fill="#2E6CA8"></path>
        </g>
    </g>
</svg>